inDegrees=yes
name=ik_S52_A11_T02
DataType=double
version=3
OpenSimVersion=4.3-2021-08-27-4bc7ad9
endheader
time	pelvis_tilt	pelvis_list	pelvis_rotation	pelvis_tx	pelvis_ty	pelvis_tz	hip_flexion_r	hip_adduction_r	hip_rotation_r	knee_angle_r	knee_angle_r_beta	ankle_angle_r	subtalar_angle_r	mtp_angle_r	hip_flexion_l	hip_adduction_l	hip_rotation_l	knee_angle_l	knee_angle_l_beta	ankle_angle_l	subtalar_angle_l	mtp_angle_l	lumbar_extension	lumbar_bending	lumbar_rotation	arm_flex_r	arm_add_r	arm_rot_r	elbow_flex_r	pro_sup_r	wrist_flex_r	wrist_dev_r	arm_flex_l	arm_add_l	arm_rot_l	elbow_flex_l	pro_sup_l	wrist_flex_l	wrist_dev_l
11.19999999999985	-0.818546018428454	-2.481669158720794	31.33418856342959	0	0.9399999999999999	0	27.93505535161086	-9.059385486561705	-8.209084553742933	30.37000727410772	0.5300566207878077	0	0	0	27.93505535161086	-9.059385486561705	-8.209084553742933	30.37000727410772	0.5300566207878077	0	0	0	-1.646595094173163	-1.887182010052499	7.273118286282123	104.4041711854967	2.1153510411074	4.086035974620772	33.97740553510792	69.89235121329207	0	0	10.51667714015707	-8.292055520211418	-3.788517043981336	8.580970115493328	119.8487126506863	0	0
11.21999999999985	-0.8127259986002477	-2.47113982426239	31.31493516134259	0	0.9399999999999999	0	27.9836431064287	-9.065567346413394	-8.218158034152301	30.4229896427743	0.530981337566545	0	0	0	27.9836431064287	-9.065567346413394	-8.218158034152301	30.4229896427743	0.530981337566545	0	0	0	-1.635162706591646	-1.883181656687964	7.302124124473188	104.3823470566251	2.039468040950166	4.021340386493029	34.04977597814921	70.28177498791568	0	0	10.49116204517471	-8.252924656521634	-3.752520806076998	8.560614667688009	119.8095422136262	0	0
11.23999999999985	-0.8150088775196772	-2.470029356670909	31.32404764130473	0	0.9399999999999999	0	28.02598800434133	-9.071931467188826	-8.226713249581948	30.46872036674902	0.5317794892692246	0	0	0	28.02598800434133	-9.071931467188826	-8.226713249581948	30.46872036674902	0.5317794892692246	0	0	0	-1.636842315564991	-1.881183509018247	7.297608709520881	104.3747871612523	2.030559726236957	4.018441781923032	34.13418986384978	70.30707509770356	0	0	10.46146705418959	-8.277146903913872	-3.725234348684193	8.70538251609274	119.7597876063745	0	0
11.25999999999985	-0.8162180734988158	-2.458208244494757	31.30031951243807	0	0.9399999999999999	0	28.02066590506212	-9.070457771028961	-8.22518003020587	30.46326621025706	0.5316842962805208	0	0	0	28.02066590506212	-9.070457771028961	-8.22518003020587	30.46326621025706	0.5316842962805208	0	0	0	-1.631986418123402	-1.870079343232891	7.290638845063062	104.3829221551091	2.031647252627556	3.949019190753601	34.05874618256505	70.32175844268609	0	0	10.4702597890451	-8.255911069192406	-3.757772101562118	8.565200866486967	119.7936580335983	0	0
11.27999999999985	-0.8240703775501352	-2.45312844091364	31.2636346460176	0	0.9399999999999999	0	28.03068539469311	-9.071775708013863	-8.22706626976294	30.47416174477229	0.5318744592315764	0	0	0	28.03068539469311	-9.071775708013863	-8.22706626976294	30.47416174477229	0.5318744592315764	0	0	0	-1.636703833414079	-1.860915240586866	7.274462548422789	104.401989350809	2.08428491781019	3.976106646446518	34.00961954155388	70.34104000776615	0	0	10.47592210644268	-8.265416129159858	-3.77608678287561	8.549828936927842	119.8307718698803	0	0
11.29999999999985	-0.8216083007691705	-2.458069739989397	31.22984339479694	0	0.9399999999999999	0	28.03270706547687	-9.072139730206123	-8.227513852027448	30.47633864867828	0.5319124533722354	0	0	0	28.03270706547687	-9.072139730206123	-8.227513852027448	30.47633864867828	0.5319124533722354	0	0	0	-1.637440250538005	-1.86606856050935	7.267190637454256	104.4066458928246	2.130838624892244	4.068910454582072	33.99100953012541	70.30804368803351	0	0	10.4780502522451	-8.264935890078833	-3.736169617456672	8.556416725590932	119.8463448044393	0	0
11.31999999999985	-0.8218065353932924	-2.453080508866937	31.19735220758838	0	0.9399999999999999	0	28.05305931886572	-9.075025155453371	-8.231496815576943	30.49838878304295	0.532297300817406	0	0	0	28.05305931886572	-9.075025155453371	-8.231496815576943	30.49838878304295	0.532297300817406	0	0	0	-1.635574921389017	-1.861200141986763	7.253130416705122	104.3931153667336	2.088355162287138	4.027220295676229	34.01079861764129	70.28713398864122	0	7.541802925929012e-36	10.48584325911604	-8.239757641902008	-3.728709756402865	8.561662520763129	119.8228332432636	0	7.541802925929012e-36
11.33999999999985	-0.8124356972842406	-2.457724774127649	31.186135505578	0	0.9399999999999999	0	28.05731229834874	-9.075779276113302	-8.232429555900612	30.50301983926143	0.5323781279962635	0	0	0	28.05731229834874	-9.075779276113302	-8.232429555900612	30.50301983926143	0.5323781279962635	0	0	0	-1.629358655607842	-1.870738958879459	7.266982980017294	104.4317127492524	2.030851233827488	3.917595225499396	33.7833105295498	69.74424164313673	0	0	10.47048510331812	-8.281646633142753	-3.677291509461136	8.529853981707276	119.8549607296923	0	0
11.35999999999985	-0.8362513966233003	-2.460170901370709	31.14177370759471	0	0.9399999999999999	0	28.06480902237124	-9.077137848787842	-8.234096711333972	30.5110296003907	0.5325179247002674	0	0	0	28.06480902237124	-9.077137848787842	-8.234096711333972	30.5110296003907	0.5325179247002674	0	0	0	-1.651178083455102	-1.860334646122743	7.26442061406956	104.4648634800771	2.069905306581137	3.945588846807485	33.78074780695814	70.02514909684666	0	0	10.51534814566359	-8.257894811344526	-3.631177825623924	8.525444887938917	119.8774096956804	0	0
11.37999999999985	-0.8479118037541452	-2.463864172413826	31.08914901574663	0	0.9399999999999999	0	28.06739338613825	-9.077604923431311	-8.234670502187601	30.51379596339897	0.5325662068430671	0	0	0	28.06739338613825	-9.077604923431311	-8.234670502187601	30.51379596339897	0.5325662068430671	0	0	0	-1.663769325856683	-1.856559446291253	7.246741148833373	104.4845050106642	2.066655546270229	4.006165530624304	33.78352257228323	70.06570049322623	0	0	10.51673534623922	-8.239557792825055	-3.576434642180654	8.520533163641662	119.8429152179907	0	0
11.39999999999985	-0.8461520836891033	-2.46044969654216	31.04563152011299	0	0.9399999999999999	0	28.07199746440279	-9.078438980075738	-8.23569432961443	30.51871237876977	0.5326520144786833	0	0	0	28.07199746440279	-9.078438980075738	-8.23569432961443	30.51871237876977	0.5326520144786833	0	0	0	-1.660983525379975	-1.853929418678818	7.234049787542851	104.4873194860596	2.030607405893625	4.010114341097212	33.81525911631825	70.11212618861494	0	0	10.51480370131401	-8.215741044006549	-3.503577371802324	8.488850390289448	119.7314601260124	0	0
11.41999999999985	-0.84056828276482	-2.464434104100095	31.01729226476241	0	0.9399999999999999	0	28.09902905074961	-9.082148241149932	-8.240908260402596	30.54806416184242	0.5331642997346321	0	0	0	28.09902905074961	-9.082148241149932	-8.240908260402596	30.54806416184242	0.5331642997346321	0	0	0	-1.658860077818189	-1.859699654916797	7.218031377242083	104.4918035597855	2.01464486560155	4.05105435128056	33.85115595580793	70.11352453416995	0	0	10.50918613733052	-8.243532600307603	-3.478892121679949	8.510182860082542	119.6866093685189	0	0
11.43999999999984	-0.85163691553232	-2.468272767610313	30.97467425361743	0	0.9399999999999999	0	28.1028270835689	-9.08282962952622	-8.241747946500059	30.55214455295103	0.5332355159942466	0	0	0	28.1028270835689	-9.08282962952622	-8.241747946500059	30.55214455295103	0.5332355159942466	0	0	0	-1.670346472183421	-1.857350750271665	7.219073508838069	104.5323090089546	2.048782566887281	4.265864002590988	33.8677968618515	70.11169558071454	0	0	10.54106928124911	-8.244948905657136	-3.470394430603456	8.478519133590789	119.7538864851487	0	0
11.45999999999984	-0.8436051974464491	-2.480926641359567	30.95233232046612	0	0.9399999999999999	0	28.10494958369287	-9.083206513485948	-8.242214195988284	30.55444371220285	0.5332756438932185	0	0	0	28.10494958369287	-9.083206513485948	-8.242214195988284	30.55444371220285	0.5332756438932185	0	0	0	-1.670009751228119	-1.872320673250737	7.218043241085935	104.5303729836661	2.055864335948037	4.399254245289765	33.88917487922541	70.05729610604234	0	0	10.54440622238863	-8.275026309179792	-3.4886517576358	8.47475552939774	119.7794297698279	0	0
11.47999999999984	-0.8394676516549171	-2.478512877153999	30.93240078887451	0	0.9399999999999999	0	28.1241738703214	-9.085591717394671	-8.245752915090279	30.57542563977965	0.5336418476128486	0	0	0	28.1241738703214	-9.085591717394671	-8.245752915090279	30.57542563977965	0.5336418476128486	0	0	0	-1.665652308258452	-1.872012627368653	7.206960616982777	104.5105050649022	2.040794933921218	4.423804217449449	33.92439471369504	70.00330086133215	0	0	10.53483881271276	-8.268471501339498	-3.486012188596194	8.450548374216563	119.7671025644917	0	0
11.49999999999984	-0.8406623629603434	-2.466501919416615	30.91503810176927	0	0.9399999999999999	0	28.14149321750788	-9.088247020966719	-8.249274385321012	30.59410725763827	0.5339679033540808	0	0	0	28.14149321750788	-9.088247020966719	-8.249274385321012	30.59410725763827	0.5339679033540808	0	0	0	-1.660723630198195	-1.861009341468233	7.201675018323017	104.5010956489479	1.998491339727065	4.408255007707338	33.9663306664762	70.02155219277131	0	0	10.52113212511156	-8.253478239905339	-3.512717831286225	8.452967548993822	119.7811913199904	0	0
